<svg id="svg" version="1.1" xmlns="http://www.w3.org/2000/svg" xmlns:xlink="http://www.w3.org/1999/xlink" width="400" height="400" viewBox="0, 0, 400,400"><g id="svgg"><path id="path0" d="M183.400 33.200 C 183.264 33.420,181.734 33.600,180.000 33.600 C 178.266 33.600,176.736 33.780,176.600 34.000 C 176.464 34.220,175.386 34.400,174.205 34.400 C 172.829 34.400,171.841 34.616,171.457 35.000 C 171.067 35.390,170.076 35.600,168.629 35.600 C 167.403 35.600,166.400 35.780,166.400 36.000 C 166.400 36.220,165.590 36.400,164.600 36.400 C 163.610 36.400,162.800 36.580,162.800 36.800 C 162.800 37.020,162.001 37.200,161.024 37.200 C 160.047 37.200,159.136 37.380,159.000 37.600 C 158.864 37.820,158.144 38.000,157.400 38.000 C 156.656 38.000,155.936 38.180,155.800 38.400 C 155.664 38.620,154.933 38.800,154.176 38.800 C 153.419 38.800,152.800 38.980,152.800 39.200 C 152.800 39.420,152.260 39.600,151.600 39.600 C 150.940 39.600,150.400 39.780,150.400 40.000 C 150.400 40.220,149.860 40.400,149.200 40.400 C 148.540 40.400,148.000 40.580,148.000 40.800 C 148.000 41.020,147.460 41.200,146.800 41.200 C 146.140 41.200,145.600 41.380,145.600 41.600 C 145.600 41.820,144.970 42.000,144.200 42.000 C 143.430 42.000,142.800 42.180,142.800 42.400 C 142.800 42.620,142.361 42.800,141.824 42.800 C 141.287 42.800,140.736 42.980,140.600 43.200 C 140.464 43.420,140.003 43.600,139.576 43.600 C 139.149 43.600,138.800 43.780,138.800 44.000 C 138.800 44.220,138.453 44.400,138.029 44.400 C 137.604 44.400,136.987 44.670,136.657 45.000 C 136.327 45.330,135.772 45.600,135.423 45.600 C 135.074 45.600,134.432 45.780,133.995 46.000 C 133.558 46.220,132.842 46.580,132.405 46.800 C 131.968 47.020,131.338 47.200,131.005 47.200 C 130.672 47.200,130.400 47.380,130.400 47.600 C 130.400 47.820,130.040 48.000,129.600 48.000 C 129.160 48.000,128.800 48.180,128.800 48.400 C 128.800 48.620,128.440 48.800,128.000 48.800 C 127.560 48.800,127.200 48.980,127.200 49.200 C 127.200 49.420,126.840 49.600,126.400 49.600 C 125.960 49.600,125.600 49.780,125.600 50.000 C 125.600 50.220,125.150 50.400,124.600 50.400 C 124.050 50.400,123.600 50.580,123.600 50.800 C 123.600 51.020,123.240 51.200,122.800 51.200 C 122.360 51.200,122.000 51.380,122.000 51.600 C 122.000 51.820,121.640 52.000,121.200 52.000 C 120.760 52.000,120.400 52.180,120.400 52.400 C 120.400 52.620,120.122 52.800,119.783 52.800 C 119.444 52.800,118.780 53.160,118.308 53.600 C 117.836 54.040,117.213 54.400,116.925 54.400 C 116.636 54.400,116.400 54.670,116.400 55.000 C 116.400 55.330,116.147 55.600,115.838 55.600 C 115.081 55.600,112.000 57.265,112.000 57.674 C 112.000 57.853,111.680 58.000,111.288 58.000 C 110.897 58.000,110.317 58.360,110.000 58.800 C 109.683 59.240,109.103 59.600,108.712 59.600 C 108.320 59.600,108.000 59.758,108.000 59.951 C 108.000 60.145,107.460 60.527,106.800 60.800 C 106.140 61.073,105.600 61.435,105.600 61.603 C 105.600 61.771,105.015 62.188,104.300 62.530 C 102.986 63.158,101.024 64.652,99.350 66.300 C 98.848 66.795,98.286 67.200,98.102 67.200 C 97.918 67.200,96.972 67.920,96.000 68.800 C 95.028 69.680,94.092 70.400,93.921 70.400 C 93.245 70.400,88.800 74.540,88.800 75.169 C 88.800 75.406,88.539 75.600,88.220 75.600 C 87.030 75.600,75.600 87.017,75.600 88.206 C 75.600 88.533,75.406 88.800,75.169 88.800 C 74.540 88.800,70.400 93.245,70.400 93.921 C 70.400 94.092,69.680 95.028,68.800 96.000 C 67.920 96.972,67.200 97.916,67.200 98.097 C 67.200 98.278,66.615 99.041,65.900 99.792 C 64.062 101.722,63.717 102.167,62.800 103.800 C 62.353 104.596,61.630 105.631,61.194 106.099 C 60.757 106.568,60.400 107.187,60.400 107.475 C 60.400 107.764,60.220 108.000,60.000 108.000 C 59.780 108.000,59.600 108.320,59.600 108.712 C 59.600 109.103,59.240 109.683,58.800 110.000 C 58.360 110.317,58.000 110.857,58.000 111.200 C 58.000 111.543,57.640 112.083,57.200 112.400 C 56.760 112.717,56.400 113.286,56.400 113.665 C 56.400 114.043,56.220 114.464,56.000 114.600 C 55.780 114.736,55.600 115.197,55.600 115.624 C 55.600 116.051,55.352 116.400,55.049 116.400 C 54.745 116.400,54.273 116.940,54.000 117.600 C 53.727 118.260,53.345 118.800,53.151 118.800 C 52.958 118.800,52.800 119.160,52.800 119.600 C 52.800 120.040,52.620 120.400,52.400 120.400 C 52.180 120.400,52.000 120.760,52.000 121.200 C 52.000 121.640,51.820 122.000,51.600 122.000 C 51.380 122.000,51.200 122.349,51.200 122.776 C 51.200 123.203,51.020 123.664,50.800 123.800 C 50.580 123.936,50.400 124.397,50.400 124.824 C 50.400 125.251,50.220 125.600,50.000 125.600 C 49.780 125.600,49.600 125.960,49.600 126.400 C 49.600 126.840,49.420 127.200,49.200 127.200 C 48.980 127.200,48.800 127.560,48.800 128.000 C 48.800 128.440,48.620 128.800,48.400 128.800 C 48.180 128.800,48.000 129.160,48.000 129.600 C 48.000 130.040,47.820 130.400,47.600 130.400 C 47.380 130.400,47.200 130.672,47.200 131.005 C 47.200 131.338,47.020 131.968,46.800 132.405 C 46.580 132.842,46.220 133.558,46.000 133.995 C 45.780 134.432,45.600 135.074,45.600 135.423 C 45.600 135.772,45.330 136.327,45.000 136.657 C 44.670 136.987,44.400 137.604,44.400 138.029 C 44.400 138.453,44.220 138.800,44.000 138.800 C 43.780 138.800,43.600 139.149,43.600 139.576 C 43.600 140.003,43.420 140.464,43.200 140.600 C 42.980 140.736,42.800 141.287,42.800 141.824 C 42.800 142.361,42.620 142.800,42.400 142.800 C 42.180 142.800,42.000 143.430,42.000 144.200 C 42.000 144.970,41.820 145.600,41.600 145.600 C 41.380 145.600,41.200 146.039,41.200 146.576 C 41.200 147.113,41.020 147.664,40.800 147.800 C 40.580 147.936,40.400 148.476,40.400 149.000 C 40.400 149.524,40.220 150.064,40.000 150.200 C 39.780 150.336,39.600 150.977,39.600 151.624 C 39.600 152.271,39.420 152.800,39.200 152.800 C 38.980 152.800,38.800 153.419,38.800 154.176 C 38.800 154.933,38.620 155.664,38.400 155.800 C 38.180 155.936,38.000 156.667,38.000 157.424 C 38.000 158.181,37.820 158.800,37.600 158.800 C 37.380 158.800,37.200 159.599,37.200 160.576 C 37.200 161.553,37.020 162.464,36.800 162.600 C 36.580 162.736,36.400 163.647,36.400 164.624 C 36.400 165.601,36.220 166.400,36.000 166.400 C 35.780 166.400,35.594 167.345,35.587 168.500 C 35.580 169.709,35.325 170.930,34.987 171.376 C 34.644 171.830,34.400 173.026,34.400 174.253 C 34.400 175.408,34.220 176.464,34.000 176.600 C 33.780 176.736,33.600 178.176,33.600 179.800 C 33.600 181.424,33.420 182.864,33.200 183.000 C 32.652 183.339,32.652 216.261,33.200 216.600 C 33.420 216.736,33.600 218.266,33.600 220.000 C 33.600 221.734,33.780 223.264,34.000 223.400 C 34.220 223.536,34.400 224.592,34.400 225.747 C 34.400 226.974,34.644 228.170,34.987 228.624 C 35.325 229.070,35.580 230.291,35.587 231.500 C 35.594 232.655,35.780 233.600,36.000 233.600 C 36.220 233.600,36.400 234.410,36.400 235.400 C 36.400 236.390,36.580 237.200,36.800 237.200 C 37.020 237.200,37.200 238.100,37.200 239.200 C 37.200 240.300,37.380 241.200,37.600 241.200 C 37.820 241.200,38.000 241.819,38.000 242.576 C 38.000 243.333,38.180 244.064,38.400 244.200 C 38.620 244.336,38.800 245.067,38.800 245.824 C 38.800 246.581,38.980 247.200,39.200 247.200 C 39.420 247.200,39.600 247.729,39.600 248.376 C 39.600 249.023,39.780 249.664,40.000 249.800 C 40.220 249.936,40.400 250.476,40.400 251.000 C 40.400 251.524,40.580 252.064,40.800 252.200 C 41.020 252.336,41.200 252.887,41.200 253.424 C 41.200 253.961,41.380 254.400,41.600 254.400 C 41.820 254.400,42.000 255.030,42.000 255.800 C 42.000 256.570,42.180 257.200,42.400 257.200 C 42.620 257.200,42.800 257.639,42.800 258.176 C 42.800 258.713,42.980 259.264,43.200 259.400 C 43.420 259.536,43.600 259.997,43.600 260.424 C 43.600 260.851,43.780 261.200,44.000 261.200 C 44.220 261.200,44.400 261.547,44.400 261.971 C 44.400 262.396,44.670 263.013,45.000 263.343 C 45.330 263.673,45.600 264.228,45.600 264.577 C 45.600 264.926,45.780 265.568,46.000 266.005 C 46.220 266.442,46.580 267.158,46.800 267.595 C 47.020 268.032,47.200 268.662,47.200 268.995 C 47.200 269.328,47.380 269.600,47.600 269.600 C 47.820 269.600,48.000 269.960,48.000 270.400 C 48.000 270.840,48.180 271.200,48.400 271.200 C 48.620 271.200,48.800 271.560,48.800 272.000 C 48.800 272.440,48.980 272.800,49.200 272.800 C 49.420 272.800,49.600 273.160,49.600 273.600 C 49.600 274.040,49.780 274.400,50.000 274.400 C 50.220 274.400,50.400 274.749,50.400 275.176 C 50.400 275.603,50.580 276.064,50.800 276.200 C 51.020 276.336,51.200 276.797,51.200 277.224 C 51.200 277.651,51.380 278.000,51.600 278.000 C 51.820 278.000,52.000 278.360,52.000 278.800 C 52.000 279.240,52.136 279.600,52.302 279.600 C 52.469 279.600,52.835 280.121,53.117 280.757 C 53.399 281.394,54.073 282.393,54.615 282.978 C 55.157 283.563,55.600 284.291,55.600 284.597 C 55.600 284.903,55.780 285.264,56.000 285.400 C 56.220 285.536,56.400 285.957,56.400 286.335 C 56.400 286.714,56.760 287.283,57.200 287.600 C 57.640 287.917,58.000 288.457,58.000 288.800 C 58.000 289.143,58.360 289.683,58.800 290.000 C 59.240 290.317,59.600 290.897,59.600 291.288 C 59.600 291.680,59.780 292.000,60.000 292.000 C 60.220 292.000,60.400 292.236,60.400 292.525 C 60.400 292.813,60.757 293.432,61.194 293.901 C 61.630 294.369,62.353 295.404,62.800 296.200 C 63.717 297.833,64.062 298.278,65.900 300.208 C 66.615 300.959,67.200 301.733,67.200 301.927 C 67.200 302.122,67.740 302.846,68.400 303.537 C 69.060 304.228,69.600 304.974,69.600 305.196 C 69.600 305.418,69.780 305.600,70.000 305.600 C 70.220 305.600,70.400 305.778,70.400 305.995 C 70.400 306.741,74.486 311.200,75.169 311.200 C 75.406 311.200,75.600 311.467,75.600 311.794 C 75.600 312.421,77.859 314.974,81.740 318.734 C 83.027 319.980,84.867 321.765,85.829 322.700 C 86.792 323.635,87.854 324.400,88.189 324.400 C 88.525 324.400,88.800 324.594,88.800 324.831 C 88.800 325.460,93.245 329.600,93.921 329.600 C 94.092 329.600,95.028 330.320,96.000 331.200 C 96.972 332.080,97.918 332.800,98.102 332.800 C 98.286 332.800,98.848 333.205,99.350 333.700 C 101.024 335.348,102.986 336.842,104.300 337.470 C 105.015 337.812,105.600 338.229,105.600 338.397 C 105.600 338.565,106.140 338.927,106.800 339.200 C 107.460 339.473,108.000 339.855,108.000 340.049 C 108.000 340.242,108.320 340.400,108.712 340.400 C 109.103 340.400,109.683 340.760,110.000 341.200 C 110.317 341.640,110.897 342.000,111.288 342.000 C 111.680 342.000,112.000 342.147,112.000 342.326 C 112.000 342.735,115.081 344.400,115.838 344.400 C 116.147 344.400,116.400 344.649,116.400 344.953 C 116.400 345.258,116.715 345.607,117.100 345.729 C 118.036 346.025,120.166 347.324,120.333 347.700 C 120.407 347.865,120.812 348.000,121.233 348.000 C 121.655 348.000,122.000 348.180,122.000 348.400 C 122.000 348.620,122.360 348.800,122.800 348.800 C 123.240 348.800,123.600 348.980,123.600 349.200 C 123.600 349.420,124.050 349.600,124.600 349.600 C 125.150 349.600,125.600 349.780,125.600 350.000 C 125.600 350.220,125.960 350.400,126.400 350.400 C 126.840 350.400,127.200 350.580,127.200 350.800 C 127.200 351.020,127.560 351.200,128.000 351.200 C 128.440 351.200,128.800 351.380,128.800 351.600 C 128.800 351.820,129.160 352.000,129.600 352.000 C 130.040 352.000,130.400 352.180,130.400 352.400 C 130.400 352.620,130.672 352.800,131.005 352.800 C 131.338 352.800,131.968 352.980,132.405 353.200 C 132.842 353.420,133.558 353.780,133.995 354.000 C 134.432 354.220,135.132 354.400,135.552 354.400 C 135.971 354.400,136.418 354.670,136.545 355.000 C 136.671 355.330,137.231 355.600,137.787 355.600 C 138.344 355.600,138.800 355.780,138.800 356.000 C 138.800 356.220,139.149 356.400,139.576 356.400 C 140.003 356.400,140.464 356.580,140.600 356.800 C 140.736 357.020,141.287 357.200,141.824 357.200 C 142.361 357.200,142.800 357.380,142.800 357.600 C 142.800 357.820,143.430 358.000,144.200 358.000 C 144.970 358.000,145.600 358.180,145.600 358.400 C 145.600 358.620,146.039 358.800,146.576 358.800 C 147.113 358.800,147.664 358.980,147.800 359.200 C 147.936 359.420,148.577 359.600,149.224 359.600 C 149.871 359.600,150.400 359.780,150.400 360.000 C 150.400 360.220,150.929 360.400,151.576 360.400 C 152.223 360.400,152.864 360.580,153.000 360.800 C 153.136 361.020,153.856 361.200,154.600 361.200 C 155.344 361.200,156.064 361.380,156.200 361.600 C 156.336 361.820,156.966 362.000,157.600 362.000 C 158.234 362.000,158.864 362.180,159.000 362.400 C 159.136 362.620,160.047 362.800,161.024 362.800 C 162.001 362.800,162.800 362.980,162.800 363.200 C 162.800 363.420,163.610 363.600,164.600 363.600 C 165.590 363.600,166.400 363.780,166.400 364.000 C 166.400 364.221,167.452 364.400,168.757 364.400 C 170.484 364.400,171.176 364.561,171.345 365.000 C 171.514 365.441,172.209 365.600,173.964 365.600 C 175.278 365.600,176.464 365.780,176.600 366.000 C 176.736 366.220,178.266 366.400,180.000 366.400 C 181.734 366.400,183.264 366.580,183.400 366.800 C 183.558 367.056,189.530 367.200,200.000 367.200 C 210.470 367.200,216.442 367.056,216.600 366.800 C 216.736 366.580,218.266 366.400,220.000 366.400 C 221.734 366.400,223.264 366.220,223.400 366.000 C 223.536 365.780,224.722 365.600,226.036 365.600 C 227.791 365.600,228.486 365.441,228.655 365.000 C 228.824 364.561,229.516 364.400,231.243 364.400 C 232.548 364.400,233.600 364.221,233.600 364.000 C 233.600 363.780,234.410 363.600,235.400 363.600 C 236.390 363.600,237.200 363.420,237.200 363.200 C 237.200 362.980,238.100 362.800,239.200 362.800 C 240.300 362.800,241.200 362.620,241.200 362.400 C 241.200 362.180,241.729 362.000,242.376 362.000 C 243.023 362.000,243.664 361.820,243.800 361.600 C 243.936 361.380,244.757 361.200,245.624 361.200 C 246.491 361.200,247.200 361.020,247.200 360.800 C 247.200 360.580,247.729 360.400,248.376 360.400 C 249.023 360.400,249.664 360.220,249.800 360.000 C 249.936 359.780,250.476 359.600,251.000 359.600 C 251.524 359.600,252.064 359.420,252.200 359.200 C 252.336 358.980,252.876 358.800,253.400 358.800 C 253.924 358.800,254.464 358.620,254.600 358.400 C 254.736 358.180,255.377 358.000,256.024 358.000 C 256.671 358.000,257.200 357.820,257.200 357.600 C 257.200 357.380,257.639 357.200,258.176 357.200 C 258.713 357.200,259.264 357.020,259.400 356.800 C 259.536 356.580,259.997 356.400,260.424 356.400 C 260.851 356.400,261.200 356.220,261.200 356.000 C 261.200 355.780,261.656 355.600,262.213 355.600 C 262.769 355.600,263.329 355.330,263.455 355.000 C 263.582 354.670,264.029 354.400,264.448 354.400 C 264.868 354.400,265.613 354.192,266.105 353.938 C 267.982 352.967,268.407 352.800,268.995 352.800 C 269.328 352.800,269.600 352.620,269.600 352.400 C 269.600 352.180,269.960 352.000,270.400 352.000 C 270.840 352.000,271.200 351.820,271.200 351.600 C 271.200 351.380,271.560 351.200,272.000 351.200 C 272.440 351.200,272.800 351.020,272.800 350.800 C 272.800 350.580,273.160 350.400,273.600 350.400 C 274.040 350.400,274.400 350.220,274.400 350.000 C 274.400 349.780,274.749 349.600,275.176 349.600 C 275.603 349.600,276.064 349.420,276.200 349.200 C 276.336 348.980,276.797 348.800,277.224 348.800 C 277.651 348.800,278.000 348.620,278.000 348.400 C 278.000 348.180,278.360 348.000,278.800 348.000 C 279.240 348.000,279.603 347.865,279.606 347.700 C 279.610 347.535,280.510 346.960,281.606 346.421 C 282.703 345.883,283.600 345.208,283.600 344.921 C 283.600 344.632,284.045 344.400,284.600 344.400 C 285.150 344.400,285.600 344.220,285.600 344.000 C 285.600 343.780,285.920 343.600,286.312 343.600 C 286.703 343.600,287.283 343.240,287.600 342.800 C 287.917 342.360,288.414 342.000,288.705 342.000 C 288.996 342.000,289.620 341.640,290.092 341.200 C 290.564 340.760,291.187 340.400,291.475 340.400 C 291.764 340.400,292.000 340.220,292.000 340.000 C 292.000 339.780,292.236 339.600,292.525 339.600 C 292.813 339.600,293.436 339.240,293.908 338.800 C 294.380 338.360,294.954 338.000,295.183 338.000 C 295.412 338.000,295.600 337.820,295.600 337.600 C 295.600 337.380,295.825 337.198,296.100 337.195 C 296.667 337.189,298.239 336.009,300.223 334.100 C 300.965 333.385,301.733 332.800,301.927 332.800 C 302.122 332.800,302.846 332.260,303.537 331.600 C 304.228 330.940,304.974 330.400,305.196 330.400 C 305.418 330.400,305.600 330.220,305.600 330.000 C 305.600 329.780,305.870 329.600,306.200 329.600 C 306.530 329.600,306.800 329.420,306.800 329.200 C 306.800 328.980,306.985 328.800,307.211 328.800 C 307.436 328.800,308.426 327.995,309.411 327.011 C 310.395 326.026,311.200 325.036,311.200 324.811 C 311.200 324.585,311.467 324.400,311.794 324.400 C 312.979 324.400,324.400 312.979,324.400 311.794 C 324.400 311.467,324.594 311.200,324.831 311.200 C 325.514 311.200,329.600 306.741,329.600 305.995 C 329.600 305.778,329.780 305.600,330.000 305.600 C 330.220 305.600,330.400 305.418,330.400 305.196 C 330.400 304.974,330.940 304.228,331.600 303.537 C 332.260 302.846,332.800 302.122,332.800 301.927 C 332.800 301.733,333.385 300.965,334.100 300.223 C 336.009 298.239,337.189 296.667,337.195 296.100 C 337.198 295.825,337.380 295.600,337.600 295.600 C 337.820 295.600,338.000 295.412,338.000 295.183 C 338.000 294.954,338.360 294.380,338.800 293.908 C 339.240 293.436,339.600 292.813,339.600 292.525 C 339.600 292.236,339.780 292.000,340.000 292.000 C 340.220 292.000,340.400 291.764,340.400 291.475 C 340.400 291.187,340.760 290.564,341.200 290.092 C 341.640 289.620,342.000 289.038,342.000 288.800 C 342.000 288.562,342.360 287.980,342.800 287.508 C 343.240 287.036,343.600 286.413,343.600 286.125 C 343.600 285.836,343.780 285.600,344.000 285.600 C 344.220 285.600,344.400 285.150,344.400 284.600 C 344.400 284.045,344.632 283.600,344.921 283.600 C 345.208 283.600,345.883 282.703,346.421 281.606 C 346.960 280.510,347.535 279.610,347.700 279.606 C 347.865 279.603,348.000 279.240,348.000 278.800 C 348.000 278.360,348.180 278.000,348.400 278.000 C 348.620 278.000,348.800 277.640,348.800 277.200 C 348.800 276.760,348.980 276.400,349.200 276.400 C 349.420 276.400,349.600 275.950,349.600 275.400 C 349.600 274.850,349.780 274.400,350.000 274.400 C 350.220 274.400,350.400 274.040,350.400 273.600 C 350.400 273.160,350.580 272.800,350.800 272.800 C 351.020 272.800,351.200 272.440,351.200 272.000 C 351.200 271.560,351.380 271.200,351.600 271.200 C 351.820 271.200,352.000 270.840,352.000 270.400 C 352.000 269.960,352.180 269.600,352.400 269.600 C 352.620 269.600,352.800 269.328,352.800 268.995 C 352.800 268.662,353.008 267.987,353.262 267.495 C 354.253 265.577,354.400 265.185,354.400 264.448 C 354.400 264.029,354.670 263.582,355.000 263.455 C 355.330 263.329,355.600 262.769,355.600 262.213 C 355.600 261.656,355.780 261.200,356.000 261.200 C 356.220 261.200,356.400 260.851,356.400 260.424 C 356.400 259.997,356.580 259.536,356.800 259.400 C 357.020 259.264,357.200 258.713,357.200 258.176 C 357.200 257.639,357.380 257.200,357.600 257.200 C 357.820 257.200,358.000 256.570,358.000 255.800 C 358.000 255.030,358.180 254.400,358.400 254.400 C 358.620 254.400,358.800 253.961,358.800 253.424 C 358.800 252.887,358.980 252.336,359.200 252.200 C 359.420 252.064,359.600 251.524,359.600 251.000 C 359.600 250.476,359.780 249.936,360.000 249.800 C 360.220 249.664,360.400 249.023,360.400 248.376 C 360.400 247.729,360.580 247.200,360.800 247.200 C 361.020 247.200,361.200 246.491,361.200 245.624 C 361.200 244.757,361.380 243.936,361.600 243.800 C 361.820 243.664,362.000 243.023,362.000 242.376 C 362.000 241.729,362.180 241.200,362.400 241.200 C 362.620 241.200,362.800 240.300,362.800 239.200 C 362.800 238.100,362.980 237.200,363.200 237.200 C 363.420 237.200,363.600 236.390,363.600 235.400 C 363.600 234.410,363.780 233.600,364.000 233.600 C 364.221 233.600,364.400 232.548,364.400 231.243 C 364.400 229.516,364.561 228.824,365.000 228.655 C 365.441 228.486,365.600 227.791,365.600 226.036 C 365.600 224.722,365.780 223.536,366.000 223.400 C 366.220 223.264,366.400 221.734,366.400 220.000 C 366.400 218.266,366.580 216.736,366.800 216.600 C 367.056 216.442,367.200 210.470,367.200 200.000 C 367.200 189.530,367.056 183.558,366.800 183.400 C 366.580 183.264,366.400 181.734,366.400 180.000 C 366.400 178.266,366.220 176.736,366.000 176.600 C 365.780 176.464,365.600 175.305,365.600 174.025 C 365.600 172.445,365.408 171.538,365.000 171.200 C 364.603 170.870,364.400 169.975,364.400 168.551 C 364.400 167.368,364.220 166.400,364.000 166.400 C 363.780 166.400,363.600 165.590,363.600 164.600 C 363.600 163.610,363.420 162.800,363.200 162.800 C 362.980 162.800,362.800 161.900,362.800 160.800 C 362.800 159.700,362.620 158.800,362.400 158.800 C 362.180 158.800,362.000 158.271,362.000 157.624 C 362.000 156.977,361.820 156.336,361.600 156.200 C 361.380 156.064,361.200 155.243,361.200 154.376 C 361.200 153.509,361.020 152.800,360.800 152.800 C 360.580 152.800,360.400 152.271,360.400 151.624 C 360.400 150.977,360.220 150.336,360.000 150.200 C 359.780 150.064,359.600 149.524,359.600 149.000 C 359.600 148.476,359.420 147.936,359.200 147.800 C 358.980 147.664,358.800 147.113,358.800 146.576 C 358.800 146.039,358.620 145.600,358.400 145.600 C 358.180 145.600,358.000 144.970,358.000 144.200 C 358.000 143.430,357.820 142.800,357.600 142.800 C 357.380 142.800,357.200 142.361,357.200 141.824 C 357.200 141.287,357.020 140.736,356.800 140.600 C 356.580 140.464,356.400 140.003,356.400 139.576 C 356.400 139.149,356.220 138.800,356.000 138.800 C 355.780 138.800,355.600 138.344,355.600 137.787 C 355.600 137.231,355.330 136.671,355.000 136.545 C 354.670 136.418,354.400 135.971,354.400 135.552 C 354.400 135.132,354.192 134.387,353.938 133.895 C 352.967 132.018,352.800 131.593,352.800 131.005 C 352.800 130.672,352.620 130.400,352.400 130.400 C 352.180 130.400,352.000 130.040,352.000 129.600 C 352.000 129.160,351.820 128.800,351.600 128.800 C 351.380 128.800,351.200 128.440,351.200 128.000 C 351.200 127.560,351.020 127.200,350.800 127.200 C 350.580 127.200,350.400 126.840,350.400 126.400 C 350.400 125.960,350.220 125.600,350.000 125.600 C 349.780 125.600,349.600 125.150,349.600 124.600 C 349.600 124.050,349.420 123.600,349.200 123.600 C 348.980 123.600,348.800 123.240,348.800 122.800 C 348.800 122.360,348.620 122.000,348.400 122.000 C 348.180 122.000,348.000 121.640,348.000 121.200 C 348.000 120.760,347.865 120.397,347.700 120.394 C 347.535 120.390,346.960 119.490,346.421 118.394 C 345.883 117.297,345.208 116.400,344.921 116.400 C 344.635 116.400,344.400 116.147,344.400 115.838 C 344.400 115.081,342.735 112.000,342.326 112.000 C 342.147 112.000,342.000 111.722,342.000 111.383 C 342.000 111.044,341.640 110.380,341.200 109.908 C 340.760 109.436,340.400 108.813,340.400 108.525 C 340.400 108.236,340.220 108.000,340.000 108.000 C 339.780 108.000,339.600 107.764,339.600 107.475 C 339.600 107.187,339.243 106.568,338.806 106.099 C 338.370 105.631,337.647 104.596,337.200 103.800 C 336.283 102.167,335.938 101.722,334.100 99.792 C 333.385 99.041,332.800 98.223,332.800 97.974 C 332.800 97.725,332.260 97.017,331.600 96.400 C 330.940 95.783,330.400 95.081,330.400 94.840 C 330.400 94.598,330.220 94.400,330.000 94.400 C 329.780 94.400,329.600 94.222,329.600 94.005 C 329.600 93.259,325.514 88.800,324.831 88.800 C 324.594 88.800,324.400 88.533,324.400 88.206 C 324.400 87.021,312.979 75.600,311.794 75.600 C 311.467 75.600,311.200 75.415,311.200 75.189 C 311.200 74.655,307.745 71.200,307.211 71.200 C 306.985 71.200,306.800 71.020,306.800 70.800 C 306.800 70.580,306.530 70.400,306.200 70.400 C 305.870 70.400,305.600 70.220,305.600 70.000 C 305.600 69.780,305.402 69.600,305.160 69.600 C 304.919 69.600,304.217 69.060,303.600 68.400 C 302.983 67.740,302.275 67.200,302.026 67.200 C 301.777 67.200,300.959 66.615,300.208 65.900 C 298.278 64.062,297.833 63.717,296.200 62.800 C 295.404 62.353,294.369 61.630,293.901 61.194 C 293.432 60.757,292.813 60.400,292.525 60.400 C 292.236 60.400,292.000 60.220,292.000 60.000 C 292.000 59.780,291.764 59.600,291.475 59.600 C 291.187 59.600,290.564 59.240,290.092 58.800 C 289.620 58.360,288.996 58.000,288.705 58.000 C 288.414 58.000,287.917 57.640,287.600 57.200 C 287.283 56.760,286.714 56.400,286.335 56.400 C 285.957 56.400,285.536 56.220,285.400 56.000 C 285.264 55.780,284.803 55.600,284.376 55.600 C 283.949 55.600,283.600 55.365,283.600 55.079 C 283.600 54.792,282.703 54.117,281.606 53.579 C 280.510 53.040,279.610 52.465,279.606 52.300 C 279.603 52.135,279.240 52.000,278.800 52.000 C 278.360 52.000,278.000 51.820,278.000 51.600 C 278.000 51.380,277.640 51.200,277.200 51.200 C 276.760 51.200,276.400 51.020,276.400 50.800 C 276.400 50.580,275.950 50.400,275.400 50.400 C 274.850 50.400,274.400 50.220,274.400 50.000 C 274.400 49.780,274.040 49.600,273.600 49.600 C 273.160 49.600,272.800 49.420,272.800 49.200 C 272.800 48.980,272.440 48.800,272.000 48.800 C 271.560 48.800,271.200 48.620,271.200 48.400 C 271.200 48.180,270.840 48.000,270.400 48.000 C 269.960 48.000,269.600 47.820,269.600 47.600 C 269.600 47.380,269.240 47.200,268.800 47.200 C 268.360 47.200,268.000 47.020,268.000 46.800 C 268.000 46.580,267.561 46.400,267.024 46.400 C 266.487 46.400,265.936 46.220,265.800 46.000 C 265.664 45.780,265.133 45.600,264.619 45.600 C 264.106 45.600,263.582 45.330,263.455 45.000 C 263.329 44.670,262.769 44.400,262.213 44.400 C 261.656 44.400,261.200 44.220,261.200 44.000 C 261.200 43.780,260.851 43.600,260.424 43.600 C 259.997 43.600,259.536 43.420,259.400 43.200 C 259.264 42.980,258.713 42.800,258.176 42.800 C 257.639 42.800,257.200 42.620,257.200 42.400 C 257.200 42.180,256.671 42.000,256.024 42.000 C 255.377 42.000,254.736 41.820,254.600 41.600 C 254.464 41.380,253.924 41.200,253.400 41.200 C 252.876 41.200,252.336 41.020,252.200 40.800 C 252.064 40.580,251.524 40.400,251.000 40.400 C 250.476 40.400,249.936 40.220,249.800 40.000 C 249.664 39.780,249.023 39.600,248.376 39.600 C 247.729 39.600,247.200 39.420,247.200 39.200 C 247.200 38.980,246.581 38.800,245.824 38.800 C 245.067 38.800,244.336 38.620,244.200 38.400 C 244.064 38.180,243.333 38.000,242.576 38.000 C 241.819 38.000,241.200 37.820,241.200 37.600 C 241.200 37.380,240.300 37.200,239.200 37.200 C 238.100 37.200,237.200 37.020,237.200 36.800 C 237.200 36.580,236.390 36.400,235.400 36.400 C 234.410 36.400,233.600 36.220,233.600 36.000 C 233.600 35.780,232.597 35.600,231.371 35.600 C 229.924 35.600,228.933 35.390,228.543 35.000 C 228.159 34.616,227.171 34.400,225.795 34.400 C 224.614 34.400,223.536 34.220,223.400 34.000 C 223.264 33.780,221.734 33.600,220.000 33.600 C 218.266 33.600,216.736 33.420,216.600 33.200 C 216.442 32.944,210.470 32.800,200.000 32.800 C 189.530 32.800,183.558 32.944,183.400 33.200 " stroke="none" fill="#04acc4" fill-rule="evenodd"></path><path id="path1" d="" stroke="none" fill="#08acc4" fill-rule="evenodd"></path><path id="path2" d="" stroke="none" fill="#08acc4" fill-rule="evenodd"></path><path id="path3" d="" stroke="none" fill="#08acc4" fill-rule="evenodd"></path><path id="path4" d="" stroke="none" fill="#08acc4" fill-rule="evenodd"></path></g></svg>