<?xml version="1.0" encoding="UTF-8" standalone="no"?>
<svg
   viewBox="0 0 1024 1024"
   version="1.1"
   id="svg33"
   sodipodi:docname="appiconfg.svg"
   inkscape:version="1.1.2 (b8e25be833, 2022-02-05)"
   xmlns:inkscape="http://www.inkscape.org/namespaces/inkscape"
   xmlns:sodipodi="http://sodipodi.sourceforge.net/DTD/sodipodi-0.dtd"
   xmlns="http://www.w3.org/2000/svg"
   xmlns:svg="http://www.w3.org/2000/svg">
	<sodipodi:namedview
	   id="namedview35"
	   pagecolor="#505050"
	   bordercolor="#eeeeee"
	   borderopacity="1"
	   inkscape:pageshadow="0"
	   inkscape:pageopacity="0"
	   inkscape:pagecheckerboard="0"
	   showgrid="false"
	   showguides="true"
	   inkscape:guide-bbox="true"
	   inkscape:zoom="0.49674656"
	   inkscape:cx="366.38402"
	   inkscape:cy="587.82491"
	   inkscape:window-width="1920"
	   inkscape:window-height="1009"
	   inkscape:window-x="-8"
	   inkscape:window-y="-8"
	   inkscape:window-maximized="1"
	   inkscape:current-layer="svg33"
	   width="1024px">
		<sodipodi:guide
		   position="185.2051,228.73547"
		   orientation="1,0"
		   id="guide117" />
		<sodipodi:guide
		   position="513.34024,1195.1134"
		   orientation="1,0"
		   id="guide119" />
		<sodipodi:guide
		   position="145.5341,498.7946"
		   orientation="0,-1"
		   id="guide121" />
	</sodipodi:namedview>
	<g
	   id="Camada_2"
	   data-name="Camada 2"
	   transform="matrix(0.92624374,0,0,0.92790651,115.34605,343.83679)">
		<g
		   id="Camada_1-2"
		   data-name="Camada 1">
			<path
			   class="cls-1"
			   d="m 618.23,3.64 q 72.25,0 97.58,17.56 25.1,17.8 16.27,50.13 L 671.9,290.78 q -9.3,33 -43.68,50.13 -34.85,17.37 -107.34,17.36 H 204.43 q -72.72,0 -97.58,-17.36 Q 81.99,323.55 90.59,290.78 L 150.76,71.33 Q 159.6,38.57 194.44,21.2 229.3,3.65 301.78,3.64 Z M 633.1,61.27 Q 637.75,43.9 631.24,38.18 625,32.65 598,32.65 H 306 q -25.56,0 -35.78,5.72 -10.45,5.93 -14.87,22.9 l -65.79,239.38 q -5.12,18.15 1.86,23.48 6.51,5.53 33.23,5.53 H 516.7 q 25.56,0 35.78,-5.92 10.21,-6.12 14.87,-23.09 z"
			   id="path27" />
			<path
			   class="cls-2"
			   d="M 857.13,202.57 838,149.68 Q 820.59,100.15 760,70.94 C 719.6,51.47 674.4,34.88 623.54,33.24 572.95,31.61 527.54,32.83 467.69,33.03 413.14,33.22 361.6,32.65 316.32,32.65 q -27.32,0 -38.32,5.72 -11,5.93 -15.67,22.9 l -17.41,59.2 q -5.22,18.17 1.74,23.49 7,5.52 35.32,5.52 h 282.1 q 84.82,0 113.43,14 c 18.91,9.48 22.34,28.15 14.55,55.12 l -19,71 q -12,40.45 -48.51,54.66 c -24.71,9.35 -61.51,18.14 -121.2,17.28 -46.18,-0.67 -92.7,-0.25 -154.68,-0.11 -74.62,0.17 -123.13,-0.72 -174.36,-3.16 -59.29,-2.82 -97,-28.41 -132.11,-51.7 C 7.09,283.28 -6.15,246.25 2.64,195.46 h 1.24 q 24.12,63.35 81,92.26 c 37.87,19.28 80.43,34.65 128.46,38.28 45.31,3.43 97.15,3.68 150.72,3.68 53.41,0 98.45,0 142.56,0 q 27.87,0 38.81,-5.92 10.46,-6.12 15.67,-23.09 l 20.15,-69.27 q 5,-17.56 -1.49,-23.29 -6.72,-5.33 -35.82,-5.33 h -281.6 q -85.57,0 -113.93,-14.2 C 129.5,179.1 125.51,161.86 133.48,135.03 L 149.9,72.32 Q 161.84,32.06 198.41,17.85 C 223,8.38 231.08,-0.21 320.84,0.34 c 42.84,0.27 95.36,-0.7 158.92,-0.15 65.26,0.56 125.52,-2.58 183,4.92 a 338.43,338.43 0 0 1 145.5,54.38 q 60.82,40.26 48.87,143.08 z"
			   id="path29" />
		</g>
	</g>
</svg>
